<mxfile host="app.diagrams.net" modified="2024-01-11T06:41:50.032Z" agent="Mozilla/5.0 (Windows NT 10.0; Win64; x64) AppleWebKit/537.36 (KHTML, like Gecko) Chrome/120.0.0.0 Safari/537.36 Edg/120.0.0.0" etag="pZQ8zAV7PpQjZHmhKb5v" version="22.1.17" type="github">
  <diagram name="第 1 页" id="B5Mnt36pOqvjeO_F8ovg">
    <mxGraphModel dx="1426" dy="759" grid="1" gridSize="10" guides="1" tooltips="1" connect="1" arrows="1" fold="1" page="1" pageScale="1" pageWidth="827" pageHeight="1169" math="0" shadow="0">
      <root>
        <mxCell id="0" />
        <mxCell id="1" parent="0" />
        <mxCell id="whLKPYue-WuEibmdsq7B-30" value="经办部门" style="swimlane;whiteSpace=wrap;html=1;fontSize=14;" vertex="1" parent="1">
          <mxGeometry x="39" y="80" width="200" height="560" as="geometry" />
        </mxCell>
        <mxCell id="whLKPYue-WuEibmdsq7B-31" value="合同录入" style="rounded=1;whiteSpace=wrap;html=1;fontSize=14;" vertex="1" parent="whLKPYue-WuEibmdsq7B-30">
          <mxGeometry x="40" y="40" width="120" height="60" as="geometry" />
        </mxCell>
        <mxCell id="whLKPYue-WuEibmdsq7B-41" value="合同修改" style="whiteSpace=wrap;html=1;rounded=1;fontSize=14;" vertex="1" parent="whLKPYue-WuEibmdsq7B-30">
          <mxGeometry x="40" y="180" width="120" height="60" as="geometry" />
        </mxCell>
        <mxCell id="whLKPYue-WuEibmdsq7B-65" value="合同变更" style="rounded=1;whiteSpace=wrap;html=1;fontSize=14;" vertex="1" parent="whLKPYue-WuEibmdsq7B-30">
          <mxGeometry x="40" y="310" width="120" height="60" as="geometry" />
        </mxCell>
        <mxCell id="whLKPYue-WuEibmdsq7B-77" value="根据审核意见重新修改" style="whiteSpace=wrap;html=1;rounded=1;fontSize=14;" vertex="1" parent="whLKPYue-WuEibmdsq7B-30">
          <mxGeometry x="40" y="450" width="120" height="60" as="geometry" />
        </mxCell>
        <mxCell id="whLKPYue-WuEibmdsq7B-32" value="财务部门" style="swimlane;whiteSpace=wrap;html=1;fontSize=14;" vertex="1" parent="1">
          <mxGeometry x="239" y="80" width="201" height="560" as="geometry" />
        </mxCell>
        <mxCell id="whLKPYue-WuEibmdsq7B-36" value="" style="edgeStyle=orthogonalEdgeStyle;rounded=0;orthogonalLoop=1;jettySize=auto;html=1;fontSize=14;" edge="1" parent="whLKPYue-WuEibmdsq7B-32" source="whLKPYue-WuEibmdsq7B-33" target="whLKPYue-WuEibmdsq7B-35">
          <mxGeometry relative="1" as="geometry" />
        </mxCell>
        <mxCell id="whLKPYue-WuEibmdsq7B-33" value="合同审核" style="rounded=1;whiteSpace=wrap;html=1;fontSize=14;" vertex="1" parent="whLKPYue-WuEibmdsq7B-32">
          <mxGeometry x="40" y="40" width="120" height="60" as="geometry" />
        </mxCell>
        <mxCell id="whLKPYue-WuEibmdsq7B-35" value="是否通过" style="rhombus;whiteSpace=wrap;html=1;rounded=1;fontSize=14;" vertex="1" parent="whLKPYue-WuEibmdsq7B-32">
          <mxGeometry x="60" y="170" width="80" height="80" as="geometry" />
        </mxCell>
        <mxCell id="whLKPYue-WuEibmdsq7B-69" value="" style="edgeStyle=orthogonalEdgeStyle;rounded=0;orthogonalLoop=1;jettySize=auto;html=1;fontSize=14;" edge="1" parent="whLKPYue-WuEibmdsq7B-32" source="whLKPYue-WuEibmdsq7B-66" target="whLKPYue-WuEibmdsq7B-68">
          <mxGeometry relative="1" as="geometry" />
        </mxCell>
        <mxCell id="whLKPYue-WuEibmdsq7B-66" value="变更审核" style="rounded=1;whiteSpace=wrap;html=1;fontSize=14;" vertex="1" parent="whLKPYue-WuEibmdsq7B-32">
          <mxGeometry x="40" y="310" width="120" height="60" as="geometry" />
        </mxCell>
        <mxCell id="whLKPYue-WuEibmdsq7B-68" value="是否通过" style="rhombus;whiteSpace=wrap;html=1;rounded=1;fontSize=14;" vertex="1" parent="whLKPYue-WuEibmdsq7B-32">
          <mxGeometry x="60" y="440" width="80" height="80" as="geometry" />
        </mxCell>
        <mxCell id="whLKPYue-WuEibmdsq7B-34" style="edgeStyle=orthogonalEdgeStyle;rounded=0;orthogonalLoop=1;jettySize=auto;html=1;entryX=0;entryY=0.5;entryDx=0;entryDy=0;fontSize=14;" edge="1" parent="1" source="whLKPYue-WuEibmdsq7B-31" target="whLKPYue-WuEibmdsq7B-33">
          <mxGeometry relative="1" as="geometry" />
        </mxCell>
        <mxCell id="whLKPYue-WuEibmdsq7B-42" value="" style="edgeStyle=orthogonalEdgeStyle;rounded=0;orthogonalLoop=1;jettySize=auto;html=1;fontSize=14;" edge="1" parent="1" source="whLKPYue-WuEibmdsq7B-35" target="whLKPYue-WuEibmdsq7B-41">
          <mxGeometry relative="1" as="geometry" />
        </mxCell>
        <mxCell id="whLKPYue-WuEibmdsq7B-63" value="否" style="edgeLabel;html=1;align=center;verticalAlign=middle;resizable=0;points=[];fontSize=14;" vertex="1" connectable="0" parent="whLKPYue-WuEibmdsq7B-42">
          <mxGeometry x="-0.1" y="-1" relative="1" as="geometry">
            <mxPoint as="offset" />
          </mxGeometry>
        </mxCell>
        <mxCell id="whLKPYue-WuEibmdsq7B-43" value="审计部门" style="swimlane;whiteSpace=wrap;html=1;fontSize=14;" vertex="1" parent="1">
          <mxGeometry x="440" y="80" width="341" height="560" as="geometry" />
        </mxCell>
        <mxCell id="whLKPYue-WuEibmdsq7B-57" value="" style="edgeStyle=orthogonalEdgeStyle;rounded=0;orthogonalLoop=1;jettySize=auto;html=1;fontSize=14;" edge="1" parent="whLKPYue-WuEibmdsq7B-43" source="whLKPYue-WuEibmdsq7B-45" target="whLKPYue-WuEibmdsq7B-56">
          <mxGeometry relative="1" as="geometry" />
        </mxCell>
        <mxCell id="whLKPYue-WuEibmdsq7B-45" value="合同审核" style="rounded=1;whiteSpace=wrap;html=1;fontSize=14;" vertex="1" parent="whLKPYue-WuEibmdsq7B-43">
          <mxGeometry x="40" y="180" width="120" height="60" as="geometry" />
        </mxCell>
        <mxCell id="whLKPYue-WuEibmdsq7B-61" value="" style="edgeStyle=orthogonalEdgeStyle;rounded=0;orthogonalLoop=1;jettySize=auto;html=1;fontSize=14;" edge="1" parent="whLKPYue-WuEibmdsq7B-43" source="whLKPYue-WuEibmdsq7B-56" target="whLKPYue-WuEibmdsq7B-60">
          <mxGeometry relative="1" as="geometry" />
        </mxCell>
        <mxCell id="whLKPYue-WuEibmdsq7B-62" value="是" style="edgeLabel;html=1;align=center;verticalAlign=middle;resizable=0;points=[];fontSize=14;" vertex="1" connectable="0" parent="whLKPYue-WuEibmdsq7B-61">
          <mxGeometry x="-0.1333" y="4" relative="1" as="geometry">
            <mxPoint as="offset" />
          </mxGeometry>
        </mxCell>
        <mxCell id="whLKPYue-WuEibmdsq7B-56" value="是否通过" style="rhombus;whiteSpace=wrap;html=1;rounded=1;fontSize=14;" vertex="1" parent="whLKPYue-WuEibmdsq7B-43">
          <mxGeometry x="60" y="30" width="80" height="80" as="geometry" />
        </mxCell>
        <mxCell id="whLKPYue-WuEibmdsq7B-60" value="录入完成" style="whiteSpace=wrap;html=1;rounded=1;fontSize=14;" vertex="1" parent="whLKPYue-WuEibmdsq7B-43">
          <mxGeometry x="200" y="40" width="120" height="60" as="geometry" />
        </mxCell>
        <mxCell id="whLKPYue-WuEibmdsq7B-73" value="" style="edgeStyle=orthogonalEdgeStyle;rounded=0;orthogonalLoop=1;jettySize=auto;html=1;fontSize=14;" edge="1" parent="whLKPYue-WuEibmdsq7B-43" source="whLKPYue-WuEibmdsq7B-70" target="whLKPYue-WuEibmdsq7B-72">
          <mxGeometry relative="1" as="geometry" />
        </mxCell>
        <mxCell id="whLKPYue-WuEibmdsq7B-70" value="变更审核" style="whiteSpace=wrap;html=1;rounded=1;fontSize=14;" vertex="1" parent="whLKPYue-WuEibmdsq7B-43">
          <mxGeometry x="40" y="450" width="120" height="60" as="geometry" />
        </mxCell>
        <mxCell id="whLKPYue-WuEibmdsq7B-74" style="edgeStyle=orthogonalEdgeStyle;rounded=0;orthogonalLoop=1;jettySize=auto;html=1;fontSize=14;" edge="1" parent="whLKPYue-WuEibmdsq7B-43" source="whLKPYue-WuEibmdsq7B-72">
          <mxGeometry relative="1" as="geometry">
            <mxPoint x="-40" y="340" as="targetPoint" />
          </mxGeometry>
        </mxCell>
        <mxCell id="whLKPYue-WuEibmdsq7B-76" value="" style="edgeStyle=orthogonalEdgeStyle;rounded=0;orthogonalLoop=1;jettySize=auto;html=1;fontSize=14;" edge="1" parent="whLKPYue-WuEibmdsq7B-43" source="whLKPYue-WuEibmdsq7B-72" target="whLKPYue-WuEibmdsq7B-75">
          <mxGeometry relative="1" as="geometry" />
        </mxCell>
        <mxCell id="whLKPYue-WuEibmdsq7B-72" value="是否通过" style="rhombus;whiteSpace=wrap;html=1;rounded=1;fontSize=14;" vertex="1" parent="whLKPYue-WuEibmdsq7B-43">
          <mxGeometry x="60" y="300" width="80" height="80" as="geometry" />
        </mxCell>
        <mxCell id="whLKPYue-WuEibmdsq7B-75" value="变更完成" style="whiteSpace=wrap;html=1;rounded=1;fontSize=14;" vertex="1" parent="whLKPYue-WuEibmdsq7B-43">
          <mxGeometry x="200" y="310" width="120" height="60" as="geometry" />
        </mxCell>
        <mxCell id="whLKPYue-WuEibmdsq7B-47" style="edgeStyle=orthogonalEdgeStyle;rounded=0;orthogonalLoop=1;jettySize=auto;html=1;entryX=0;entryY=0.5;entryDx=0;entryDy=0;fontSize=14;" edge="1" parent="1" source="whLKPYue-WuEibmdsq7B-35" target="whLKPYue-WuEibmdsq7B-45">
          <mxGeometry relative="1" as="geometry" />
        </mxCell>
        <mxCell id="whLKPYue-WuEibmdsq7B-64" value="是" style="edgeLabel;html=1;align=center;verticalAlign=middle;resizable=0;points=[];fontSize=14;" vertex="1" connectable="0" parent="whLKPYue-WuEibmdsq7B-47">
          <mxGeometry x="-0.16" y="1" relative="1" as="geometry">
            <mxPoint as="offset" />
          </mxGeometry>
        </mxCell>
        <mxCell id="whLKPYue-WuEibmdsq7B-52" style="rounded=0;orthogonalLoop=1;jettySize=auto;html=1;exitX=1;exitY=0;exitDx=0;exitDy=0;entryX=0;entryY=1;entryDx=0;entryDy=0;fontSize=14;" edge="1" parent="1" source="whLKPYue-WuEibmdsq7B-41" target="whLKPYue-WuEibmdsq7B-33">
          <mxGeometry relative="1" as="geometry" />
        </mxCell>
        <mxCell id="whLKPYue-WuEibmdsq7B-58" style="edgeStyle=orthogonalEdgeStyle;rounded=0;orthogonalLoop=1;jettySize=auto;html=1;entryX=1;entryY=0.5;entryDx=0;entryDy=0;fontSize=14;" edge="1" parent="1" source="whLKPYue-WuEibmdsq7B-56" target="whLKPYue-WuEibmdsq7B-33">
          <mxGeometry relative="1" as="geometry" />
        </mxCell>
        <mxCell id="whLKPYue-WuEibmdsq7B-59" value="否，退回" style="edgeLabel;html=1;align=center;verticalAlign=middle;resizable=0;points=[];fontSize=14;" vertex="1" connectable="0" parent="whLKPYue-WuEibmdsq7B-58">
          <mxGeometry x="-0.06" relative="1" as="geometry">
            <mxPoint as="offset" />
          </mxGeometry>
        </mxCell>
        <mxCell id="whLKPYue-WuEibmdsq7B-67" value="" style="edgeStyle=orthogonalEdgeStyle;rounded=0;orthogonalLoop=1;jettySize=auto;html=1;fontSize=14;" edge="1" parent="1" source="whLKPYue-WuEibmdsq7B-65" target="whLKPYue-WuEibmdsq7B-66">
          <mxGeometry relative="1" as="geometry" />
        </mxCell>
        <mxCell id="whLKPYue-WuEibmdsq7B-71" value="" style="edgeStyle=orthogonalEdgeStyle;rounded=0;orthogonalLoop=1;jettySize=auto;html=1;fontSize=14;" edge="1" parent="1" source="whLKPYue-WuEibmdsq7B-68" target="whLKPYue-WuEibmdsq7B-70">
          <mxGeometry relative="1" as="geometry" />
        </mxCell>
        <mxCell id="whLKPYue-WuEibmdsq7B-78" value="" style="edgeStyle=orthogonalEdgeStyle;rounded=0;orthogonalLoop=1;jettySize=auto;html=1;fontSize=14;" edge="1" parent="1" source="whLKPYue-WuEibmdsq7B-68" target="whLKPYue-WuEibmdsq7B-77">
          <mxGeometry relative="1" as="geometry" />
        </mxCell>
        <mxCell id="whLKPYue-WuEibmdsq7B-79" style="rounded=0;orthogonalLoop=1;jettySize=auto;html=1;exitX=1;exitY=0;exitDx=0;exitDy=0;entryX=0;entryY=1;entryDx=0;entryDy=0;fontSize=14;" edge="1" parent="1" source="whLKPYue-WuEibmdsq7B-77" target="whLKPYue-WuEibmdsq7B-66">
          <mxGeometry relative="1" as="geometry" />
        </mxCell>
      </root>
    </mxGraphModel>
  </diagram>
</mxfile>
